PathFileType	4	(X/Y/Z)	C:/Users/beibeiliu/ov580/test_trc/User2\sequence.11_training_dense_left.trc
DataRate	CameraRate	NumFrames	NumMarkers	Units	OrigDataRate	OrigDataStartFrame	OrigNumFrames
120	120	15	19	mm	120	51	76
Frame#	Time	ThumbCMC			ThumbMCP			ThumbIP			ThumbTip			IndexMCP			IndexPIP			IndexTip			MiddleMCP			MiddlePIP			MiddleTip			RingMCP			RingPIP			RingTip			PinkyMCP			PinkyPIP			PinkyTip			BackHand1			BackHand2			BackHand3	
		X0	Y0	Z0	X1	Y1	Z1	X2	Y2	Z2	X3	Y3	Z3	X4	Y4	Z4	X5	Y5	Z5	X6	Y6	Z6	X7	Y7	Z7	X8	Y8	Z8	X9	Y9	Z9	X10	Y10	Z10	X11	Y11	Z11	X12	Y12	Z12	X13	Y13	Z13	X14	Y14	Z14	X15	Y15	Z15	X16	Y16	Z16	X17	Y17	Z17	X18	Y18	Z18	
50	0.416667	-210.737	89.77	18.2969	-172.478	92.5656	5.34208	-142.158	85.2383	-10.009	-128.567	61.5238	-26.7826	-211.919	79.2105	-64.6641	-200.301	76.6638	-95.0477	-187.368	79.7605	-116.369	-210.42	47.1525	-73.6532	-182.849	43.4906	-99.46	-146.375	43.7367	-94.3756	-192.072	27.8852	-63.4371	-156.343	28.0021	-69.3067	-134.415	41.177	-43.168	-196.452	8.39669	-48.9848	-173.975	5.26128	-68.3424	-147.44	15.5518	-74.1391	-233.873	26.7781	-14.9012	-248.847	26.1344	11.2592	-244.008	61.1495	-4.75396	
51	0.425	-220.835	95.7807	18.8703	-183.887	109.882	7.94943	-153.743	103.59	-10.3605	-141.689	76.789	-27.8478	-222.568	83.6497	-66.8922	-214.285	87.4409	-94.616	-203.095	88.6423	-121.463	-215.757	54.8129	-74.1248	-193.347	57.0422	-101.784	-149.429	63.1301	-98.2068	-192.211	41.4532	-66.3813	-159.716	49.2865	-72.3762	-140.772	59.3642	-46.139	-193.94	15.0734	-47.8109	-169.85	19.4406	-72.7217	-146.765	33.0344	-78.5261	-231.254	31.6042	-17.5467	-244.92	24.5216	11.7013	-248.963	63.774	-5.72771	
52	0.433333	-231.804	91.4298	12.0617	-202.163	113.329	4.73463	-166.242	116.165	-19.4145	-155.57	87.9967	-28.0671	-231.245	78.0806	-68.1651	-226.217	82.7474	-96.1065	-217.26	85.7539	-124.107	-217.596	50.9946	-79.9277	-198.497	57.8518	-106.051	-162.907	73.5254	-112.386	-189.517	41.6451	-65.5687	-161.586	59.8516	-72.573	-147.193	76.1534	-43.2535	-187.7	19.3783	-49.8992	-167.342	23.5495	-74.8453	-145.401	31.7344	-91.4963	-227.17	29.6219	-20.3487	-242.513	18.0897	11.2263	-251.805	57.2042	-10.1387	
53	0.441667	-243.826	82.2958	7.05339	-216.1	109.625	-8.9023	-183.028	115.663	-27.3754	-168.052	89.9996	-32.5291	-238.092	62.5902	-73.7872	-235.004	66.7871	-103.303	-230.837	69.2846	-127.527	-219.801	42.1052	-84.8661	-199.538	46.1775	-114.04	-171.508	60.1768	-129.256	-189.355	41.342	-71.8859	-163.425	58.5492	-75.2694	-156.319	81.9052	-50.7304	-185.042	17.4482	-52.7732	-167.782	20.2425	-77.0286	-153.169	22.6312	-96.8363	-224.305	14.2763	-20.4164	-237.028	8.45522	6.54909	-254.154	42.1122	-15.5529	
54	0.45	-254.807	65.0255	-7.15129	-234.294	93.0677	-19.5193	-202.571	102.704	-40.5285	-183.014	80.1417	-44.3093	-248.511	38.6972	-82.7716	-248.241	40.0436	-114.149	-245.714	40.557	-136.277	-223.889	18.5177	-88.8402	-210.292	26.0782	-122.137	-189.951	38.2164	-145.964	-193.149	24.3538	-76.9884	-170.911	50.1028	-83.5329	-171.257	74.5992	-60.8156	-185.624	5.71636	-60.9314	-172.257	7.57361	-82.5564	-161.347	9.00842	-104.616	-224.373	-0.517652	-27.167	-233.167	-6.18602	5.02866	-257.654	21.9273	-19.2478	
55	0.458333	-267.315	44.3356	-12.799	-251.361	76.025	-32.7767	-223.079	82.8878	-52.5068	-198.413	64.8602	-61.0313	-264.325	13.4857	-85.8989	-266.117	13.2291	-116.703	-266.291	11.3283	-143.176	-241.214	-1.35111	-94.7706	-231.661	2.64295	-129.132	-213.939	10.842	-152.969	-212.373	7.58126	-85.2495	-191.055	36.934	-96.7357	-191.288	61.4235	-75.0262	-196.481	-10.0446	-66.1634	-187.761	-7.70886	-88.6817	-173.96	-11.2324	-114.754	-233.978	-13.7981	-30.7938	-241.497	-19.3526	-1.27537	-268.046	-1.10114	-20.3376	
56	0.466667	-279.639	31.3463	-18.8123	-266.509	62.0842	-40.6809	-240.311	72.0893	-65.6258	-214.818	54.3826	-72.1457	-281.592	-5.46083	-89.3622	-286.089	-6.71874	-116.975	-287.947	-9.1159	-142.45	-254.863	-19.9633	-98.7033	-245.729	-17.0929	-132.573	-231.34	-7.43527	-161.03	-225.323	-8.08757	-89.927	-208.731	20.8597	-105.291	-211.395	48.8413	-84.0397	-210.251	-20.6874	-68.1355	-200.648	-22.1026	-92.8973	-189.326	-26.9233	-118.725	-238.28	-28.9867	-36.4569	-244.578	-32.7007	0.446933	-276.026	-12.7148	-24.802	
57	0.475	-285.154	23.9286	-16.1687	-276.005	51.9801	-42.0182	-249.921	59.001	-70.3137	-227.916	45.2837	-75.6439	-291.436	-15.6964	-90.4246	-295.233	-20.5508	-116.786	-300.212	-22.7379	-143.896	-262.473	-30.4358	-97.5215	-257.493	-29.4656	-128.11	-245.85	-18.7064	-163.306	-233.717	-15.9261	-96.3357	-222.857	10.009	-111.865	-222.097	37.6742	-93.4666	-215.817	-28.1998	-70.9954	-206.005	-32.4628	-98.2523	-200.7	-37.6343	-119.519	-242.482	-32.0441	-33.1952	-251.014	-33.9768	-1.09374	-279.57	-20.9899	-20.8957	
58	0.483333	-291.318	29.7748	-15.9162	-277.689	53.4175	-43.8755	-256.541	60.7032	-71.4816	-232.809	41.3055	-81.3904	-301.01	-13.2719	-85.5022	-308.609	-17.0932	-112.696	-314.978	-19.7438	-144.329	-274.571	-29.5502	-94.2125	-272.302	-28.7681	-132.658	-264.554	-21.3545	-163.921	-245.006	-21.1837	-93.6008	-231.728	4.54161	-113.076	-228.914	32.4307	-96.3536	-226.92	-32.8577	-73.0131	-223.222	-35.9321	-98.839	-218.546	-42.2318	-125.073	-255.9	-31.5955	-35.767	-255.648	-32.8215	0.60227	-286.36	-18.8928	-20.9529	
59	0.491667	-288.736	42.2152	-13.5215	-270.088	60.3255	-43.5746	-250.031	61.4081	-73.1212	-234.471	36.2009	-82.3426	-319.295	7.15842	-86.4018	-329.909	9.52818	-112.943	-332.341	7.63328	-137.004	-297.697	-18.5605	-96.3442	-299.338	-16.4072	-127.439	-289.016	-13.055	-160.564	-265.484	-18.3673	-97.5748	-248.625	4.22368	-114.525	-232.006	29.1238	-93.1467	-251.138	-33.8998	-73.5759	-250.536	-40.0301	-105.81	-251.149	-41.2423	-126.755	-271.413	-30.5151	-31.3801	-272.994	-30.9448	-0.333085	-302.316	-3.2777	-18.7586	
60	0.5	-280.351	51.3736	-10.486	-257.929	60.5871	-40.9443	-240.159	55.5489	-76.9691	-239.037	28.5052	-84.6485	-324.13	35.6478	-76.9605	-335.603	42.6593	-103.652	-344.93	47.7036	-133.349	-322.316	10.9788	-90.6559	-324.146	11.4234	-122.269	-320.826	18.1139	-158.994	-292.491	-7.09989	-95.9878	-267.337	3.8307	-115.255	-243.562	20.3101	-97.0429	-286.366	-26.9343	-75.754	-289.76	-31.4031	-103.82	-295.808	-32.5864	-126.828	-299.647	-16.6839	-35.02	-296.786	-18.8876	1.85691	-309.295	12.4299	-15.5855	
61	0.508333	-266.559	52.5188	-7.75565	-242.45	53.0659	-38.8589	-231.357	43.6859	-72.7089	-245.714	17.4697	-89.4081	-318.419	63.2621	-69.5303	-327.208	78.6831	-94.005	-334.115	93.4403	-116.598	-327.946	43.0556	-85.7806	-332.19	48.2023	-118.382	-331.836	54.6742	-149.794	-311.501	11.5258	-91.3888	-286.331	15.2804	-113.493	-254.023	10.4487	-96.3584	-317.195	-11.1059	-75.4957	-323.286	-6.59203	-101.75	-328.965	-1.03149	-123.494	-318.313	2.1394	-32.0967	-314.724	-2.28182	1.35933	-311.986	37.7613	-6.80168	
62	0.516667	-255.019	46.0245	-2.87315	-234.892	41.4463	-38.3475	-230.437	30.651	-68.7214	-253.973	14.4719	-86.1824	-300.394	84.5528	-63.1701	-303.247	101.231	-81.9053	-309.749	118.304	-106.665	-318.358	66.6813	-76.5511	-321.389	79.0719	-109.604	-325.539	82.8897	-139.455	-316.561	34.8765	-87.7471	-295.399	30.2701	-110.257	-265.496	10.0044	-95.5091	-329.189	13.9136	-69.7864	-335.914	20.1874	-95.4131	-345.137	29.3672	-116.551	-323.067	24.7498	-21.0835	-319.251	17.3061	7.52999	-302.096	49.608	-2.82731	
63	0.525	-246.205	37.4765	-1.7565	-228.136	30.0656	-35.3761	-231.52	21.8853	-69.3744	-258.341	14.8287	-84.3621	-275.344	91.9065	-55.8856	-274.055	112.576	-76.2094	-274.532	132.426	-94.8406	-301.531	84.5447	-70.7187	-301.3	97.7439	-98.5239	-300.567	107.498	-130.702	-309.573	55.5866	-78.3282	-292.627	43.4557	-105.99	-274.579	14.5158	-96.7614	-326.807	38.442	-62.0706	-334.875	46.2888	-88.3945	-337.631	61.4471	-109.374	-315.324	44.0208	-17.2751	-319.979	31.4936	13.7875	-287.249	60.0059	0.849651	
64	0.533333	-238.442	36.0785	-0.954012	-219.32	24.3405	-32.3634	-226.574	21.4018	-73.2703	-254.257	19.2293	-82.3421	-254.718	98.2751	-51.6368	-248.529	118.997	-69.7718	-243.801	135.974	-84.3944	-280.125	97.3204	-62.0937	-281.123	111.803	-94.7266	-279.886	118.701	-126.801	-298.312	71.1	-76.5656	-285.776	57.2079	-102.991	-269.702	24.5845	-94.499	-315.697	57.0274	-59.2081	-322.471	68.4018	-84.2781	-327.465	78.7535	-104.869	-304.824	56.4559	-13.6555	-306.366	43.5892	15.9888	-270.728	62.4046	4.50237	
